<svg xmlns="http://www.w3.org/2000/svg" width="64" height="64" viewBox="0 0 64 64" fill="none">
  <rect width="64" height="64" fill="none"/>
  <rect x="6" y="6" width="52" height="52" rx="13" fill="#111827"/>
  <rect x="6" y="6" width="52" height="52" rx="13" fill="url(#bg)"/>
  <rect x="16" y="18" width="32" height="29" rx="5" fill="#F8FAFC"/>
  <rect x="19" y="22" width="7" height="6" rx="1.5" fill="#E5E7EB"/>
  <rect x="29" y="22" width="7" height="6" rx="1.5" fill="#E5E7EB"/>
  <rect x="38" y="22" width="7" height="6" rx="1.5" fill="#E5E7EB"/>
  <rect x="19" y="30" width="7" height="6" rx="1.5" fill="#E5E7EB"/>
  <rect x="29" y="30" width="7" height="6" rx="1.5" fill="#D1FAE5"/>
  <rect x="38" y="30" width="7" height="6" rx="1.5" fill="#E5E7EB"/>
  <rect x="19" y="38" width="7" height="6" rx="1.5" fill="#E5E7EB"/>
  <rect x="29" y="38" width="7" height="6" rx="1.5" fill="#E5E7EB"/>
  <rect x="38" y="38" width="7" height="6" rx="1.5" fill="#E5E7EB"/>
  <path d="M20 40V25L32 36L44 25V40" stroke="#111827" stroke-width="5" stroke-linecap="round" stroke-linejoin="round"/>
  <path d="M20 40V25L32 36L44 25V40" stroke="#0F766E" stroke-width="2.3" stroke-linecap="round" stroke-linejoin="round"/>
  <circle cx="20" cy="25" r="3.2" fill="#10B981"/>
  <circle cx="32" cy="36" r="2.8" fill="#14B8A6"/>
  <circle cx="44" cy="25" r="3.2" fill="#10B981"/>
  <defs>
    <linearGradient id="bg" x1="10" y1="8" x2="54" y2="57" gradientUnits="userSpaceOnUse">
      <stop stop-color="#0F172A"/>
      <stop offset="0.52" stop-color="#111827"/>
      <stop offset="1" stop-color="#0F766E"/>
    </linearGradient>
  </defs>
</svg>
